<?xml version="1.0" encoding="UTF-8"?>
<svg width="794px" height="826px" viewBox="0 0 794 826" version="1.1" xmlns="http://www.w3.org/2000/svg" xmlns:xlink="http://www.w3.org/1999/xlink">
    <title>Group 4</title>
    <g id="Page-1" stroke="none" stroke-width="1" fill="none" fill-rule="evenodd">
        <g id="Group" transform="translate(-1052.8164, -1028.7888)"></g>
        <g id="Group" transform="translate(0.1836, -1028.7888)"></g>
        <g id="Group" transform="translate(-1052.8164, 0.2112)"></g>
        <g id="Group" transform="translate(0.1836, 0.2112)" fill="#FFFFFF">
            <path d="M270.054155,37.2948421 C316.758646,24.33711 358.813618,17.858244 396.21907,17.858244 C439.098293,17.858244 481.347131,22.1366238 522.965583,30.6933835 C503.325147,138.172044 493.074585,201.669415 492.213897,221.185497 C480.84844,478.89704 483.06352,651.658283 492.213897,671.47505 C498.735789,685.599366 511.971535,699.970234 522.965583,688.574503 C533.959632,677.178771 518.349923,658.473072 522.965583,649.698767 C527.581244,640.924463 537.674913,634.423191 556.213841,627.803138 C566.5282,624.119991 595.396876,621.981471 603.207276,627.803138 C611.017675,633.624806 625.43887,718.07337 612.544706,750.608704 C599.650543,783.144038 571.565458,801.783323 527.581244,818.627319 C483.597029,835.471314 412.777918,818.627319 356.586777,771.620019 C300.395637,724.61272 305.010724,637.32951 301.378601,591.635436 C296.58038,531.271209 292.656525,337.110413 292.656525,221.185497 C292.656525,143.902219 285.122401,82.6053344 270.054155,37.2948421 Z" id="Rectangle-6"></path>
        </g>
    </g>
</svg>